<?xml version="1.0" encoding="UTF-8" standalone="no"?>
<!-- Generator: Adobe Illustrator 24.3.0, SVG Export Plug-In . SVG Version: 6.00 Build 0)  -->

<svg
   version="1.1"
   id="LOGO"
   x="0px"
   y="0px"
   viewBox="0 0 2351.8 320.3775"
   xml:space="preserve"
   sodipodi:docname="MRC_IEU Bristol_RGB.svg"
   width="2351.8"
   height="320.3775"
   inkscape:version="1.1 (c4e8f9ed74, 2021-05-24)"
   xmlns:inkscape="http://www.inkscape.org/namespaces/inkscape"
   xmlns:sodipodi="http://sodipodi.sourceforge.net/DTD/sodipodi-0.dtd"
   xmlns="http://www.w3.org/2000/svg"
   xmlns:svg="http://www.w3.org/2000/svg"><defs
   id="defs293" /><sodipodi:namedview
   id="namedview291"
   pagecolor="#ffffff"
   bordercolor="#666666"
   borderopacity="1.0"
   inkscape:pageshadow="2"
   inkscape:pageopacity="0.0"
   inkscape:pagecheckerboard="0"
   showgrid="false"
   inkscape:zoom="0.92836229"
   inkscape:cx="1195.6539"
   inkscape:cy="222.43471"
   inkscape:window-width="2560"
   inkscape:window-height="1393"
   inkscape:window-x="0"
   inkscape:window-y="1103"
   inkscape:window-maximized="1"
   inkscape:current-layer="LOGO" />
<style
   type="text/css"
   id="style168">
	.st0{fill:#2E2D62;}
	.st1{fill:#FFFFFF;}
	.st2{fill:#00BED5;}
	.st3{fill:#008AAD;}
	.st4{fill:#AB1F2D;}
</style>
<g
   id="g180"
   transform="translate(-84.900002,-50.2)">
	<rect
   x="84.900002"
   y="85.5"
   class="st0"
   width="282.29999"
   height="282.29999"
   id="rect170" />
	<path
   class="st1"
   d="M 336.2,116.6 H 303.3 L 259,163.7 v -47.1 h -63.9 v 62.6 c 0,13.4 -9.9,21.2 -23.1,21.2 -13.2,0 -23.1,-7.8 -23.1,-21.2 V 116.6 H 116 v 63 c 0,28.2 22.8,44.4 48.5,47.1 H 116 v 110.1 h 32.9 V 296 h 14.4 l 30.4,40.8 H 336.2 V 314.6 H 297.6 V 249 h 38.6 V 220 L 289,171.6 336.2,123.4 Z M 226.1,193 v 51.1 C 219.1,232.3 203,226.8 179,226.7 200.4,224.5 220.1,213 226.1,193 Z m -77.2,55.9 H 179 c 12.4,0 17.4,4.8 17.4,12.3 0,7.5 -5,12.5 -17.4,12.5 h -30.1 z m 115.8,65.6 H 226.1 V 330 l -27.2,-35.6 c 20.7,-3.8 31.4,-14.5 31.4,-33.1 0,-4.6 -0.7,-8.7 -1.9,-12.3 h 36.3 z m 38.6,-87.8 H 259 v -47.3 z"
   id="path172" />
	<g
   id="g178">
		<polygon
   class="st2"
   points="367.2,50.2 367.2,85.5 367.2,367.8 562.2,367.8 562.2,226.6 424.5,85.5 389.9,50.2 "
   id="polygon174" />
		<polygon
   class="st3"
   points="562.2,367.8 649.5,367.8 649.5,85.5 424.5,85.5 562.2,226.6 "
   id="polygon176" />
	</g>
</g>
<g
   id="g242"
   transform="translate(-84.900002,-50.2)">
	<path
   class="st0"
   d="M 772.9,172.5 H 762.6 V 135.4 H 762 l -13.9,30.7 h -10.6 l -14,-30.7 h -0.6 v 37.1 h -10.3 v -55.9 h 12.9 l 17,38.3 h 0.6 L 760,116.6 h 12.9 z"
   id="path182" />
	<path
   class="st0"
   d="m 816,172.5 -11.7,-21.8 h -9.1 v 21.8 H 784.9 V 116.6 H 807 c 11.2,0 18,6.6 18,16.4 0,7.6 -4.2,13.2 -10.8,15.7 l 12.9,23.7 H 816 Z m -20.8,-30.7 h 10.6 c 5.4,0 8.7,-3.4 8.7,-8.1 0,-4.9 -3.3,-8.1 -8.7,-8.1 h -10.6 z"
   id="path184" />
	<path
   class="st0"
   d="m 859.6,173.3 c -17.1,0 -27.5,-12.1 -27.5,-28.5 0,-16.9 11,-29 27.5,-29 12.6,0 22.7,6.7 24.6,19.1 h -11.3 c -1.8,-5.7 -6.5,-9.3 -13.3,-9.3 -10,0 -16.7,8.4 -16.7,19.2 0,11.3 7.2,18.8 16.7,18.8 7.3,0 12.4,-3.6 14.1,-9 H 885 c -1.8,11.9 -12.5,18.7 -25.4,18.7 z"
   id="path186" />
	<path
   class="st0"
   d="M 926,172.5 H 915.5 V 116.6 H 926 Z"
   id="path188" />
	<path
   class="st0"
   d="m 936.5,132.6 h 9.3 l 0.9,4.7 h 0.6 c 2.4,-3.1 5.7,-5.5 11.7,-5.5 9.5,0 15.6,6.1 15.6,16.5 v 24.2 h -10.2 v -22.1 c 0,-6.5 -3.8,-9.7 -8.5,-9.7 -4.9,0 -9.2,3.1 -9.2,10.2 v 21.6 h -10.2 z"
   id="path190" />
	<path
   class="st0"
   d="m 987.6,161.7 v -21 h -8.5 v -8.1 h 2.7 c 4.9,0 6.8,-1.8 6.8,-6.1 v -4.8 h 9.3 v 10.9 h 10.5 v 8.1 h -10.5 v 19.6 c 0,2.2 0.6,4.9 5.3,4.9 1.2,0 2.7,-0.2 3.9,-0.6 v 7.7 c -1.8,0.4 -4.2,0.9 -7,0.9 -11.2,0.1 -12.5,-7.1 -12.5,-11.5 z"
   id="path192" />
	<path
   class="st0"
   d="m 1050.6,159.9 c -1.6,8.2 -8.5,13.4 -18.6,13.4 -11.9,0 -20.5,-8.1 -20.5,-20.4 0,-13.2 9.1,-21.2 20.1,-21.2 9.8,0 18.9,6.2 18.9,20.5 0,1 -0.1,1.8 -0.2,3 h -28.7 c 0.4,5.7 4.2,9.9 10.4,9.9 4.5,0 7.7,-1.8 8.8,-5.3 h 9.8 z m -28.9,-11.5 h 19.1 c -0.2,-4.9 -3.9,-8.5 -9.2,-8.5 -5.6,0.1 -9.2,3.7 -9.9,8.5 z"
   id="path194" />
	<path
   class="st0"
   d="m 1089.3,138.1 c 1.7,2.2 2.6,4.7 2.6,7.5 0,8.5 -7.3,13.4 -16.8,13.4 -2.5,0 -4.7,-0.3 -6.7,-0.9 -1.3,0.6 -1.9,1.5 -1.9,2.6 0,2.3 2.6,3 5.3,3 h 7.8 c 9.6,0 14.5,4.6 14.5,11.8 0,8.5 -7.2,13.7 -18.8,13.7 -12.7,0 -18.6,-6.3 -19.4,-13.4 l 6.1,-5.3 c -2.8,-1.5 -4.6,-4.2 -4.6,-7.3 0,-3.8 2.5,-6.2 5.3,-7.8 -3,-2.3 -4.7,-5.6 -4.7,-9.7 0,-7.8 6.3,-13.8 16.5,-13.8 3.5,0 6.7,0.7 9.3,2 2.6,-1.3 5.3,-3.5 6.9,-5.7 l 5,5.6 c -1.2,1.3 -3.7,3 -6.4,4.3 z m -11.1,33.7 h -7.3 l -5.3,4.5 c 0.9,2.8 3.8,5.3 9.7,5.3 4.9,0 8.9,-1.8 8.9,-5.4 0.1,-3.4 -3,-4.4 -6,-4.4 z m 3.9,-26.3 c 0,-3.7 -2.6,-6.3 -7,-6.3 -4.5,0 -7.3,2.6 -7.3,6.3 0,3.5 2.8,6.1 7.3,6.1 4.3,0 7,-2.6 7,-6.1 z"
   id="path196" />
	<path
   class="st0"
   d="m 1101.1,132.6 h 9.3 l 1,5.7 h 0.6 c 2.5,-4 5.2,-6.5 11.9,-6.5 h 2.9 V 142 c -1.4,-0.2 -2.9,-0.3 -4.3,-0.3 -8.8,0 -11.1,6.5 -11.1,12.2 v 18.6 h -10.2 v -39.9 z"
   id="path198" />
	<path
   class="st0"
   d="m 1169.1,164.9 v 7.7 h -4.3 c -3.8,0 -6.7,-1.1 -8.1,-4.8 -2.7,3.4 -6.9,5.6 -13.2,5.6 -8.1,0 -14.1,-3.8 -14.1,-11.7 0,-7.7 5.8,-11.4 13.2,-12.1 l 12.5,-1.3 v -1.7 c 0,-4.4 -2.8,-6.5 -6.7,-6.5 -4.3,0 -6.5,2.4 -7.2,6 H 1131 c 0.8,-8.3 7.2,-14.1 17.4,-14.1 9.3,0 16.9,4.7 16.9,15.4 V 162 c 0,2.1 1,3 2.9,3 h 0.9 z m -14.1,-9.7 -8.9,1 c -3.7,0.4 -6.5,1.9 -6.5,5 0,3.2 2.5,4.3 5.7,4.3 4.3,0 9.7,-2.1 9.7,-8.4 z"
   id="path200" />
	<path
   class="st0"
   d="m 1178.7,161.7 v -21 h -8.5 v -8.1 h 2.7 c 4.9,0 6.8,-1.8 6.8,-6.1 v -4.8 h 9.3 v 10.9 h 10.5 v 8.1 H 1189 v 19.6 c 0,2.2 0.6,4.9 5.3,4.9 1.2,0 2.7,-0.2 3.9,-0.6 v 7.7 c -1.8,0.4 -4.2,0.9 -7,0.9 -11.3,0.1 -12.5,-7.1 -12.5,-11.5 z"
   id="path202" />
	<path
   class="st0"
   d="m 1204.3,121.4 c 0,-3.5 3,-6.2 6.3,-6.2 3.4,0 6.1,2.7 6.1,6.2 0,3.3 -2.8,6.1 -6.1,6.1 -3.4,0 -6.3,-2.9 -6.3,-6.1 z m 1.2,11.2 h 10.2 v 39.9 h -10.2 z"
   id="path204" />
	<path
   class="st0"
   d="m 1220.8,132.6 h 10.5 l 10.6,29.3 h 0.6 l 10.5,-29.3 h 10.5 l -15.2,39.9 h -12.2 z"
   id="path206" />
	<path
   class="st0"
   d="m 1304.3,159.9 c -1.6,8.2 -8.5,13.4 -18.6,13.4 -11.9,0 -20.5,-8.1 -20.5,-20.4 0,-13.2 9.1,-21.2 20.1,-21.2 9.8,0 18.9,6.2 18.9,20.5 0,1 -0.1,1.8 -0.2,3 h -28.7 c 0.4,5.7 4.2,9.9 10.4,9.9 4.5,0 7.7,-1.8 8.8,-5.3 h 9.8 z m -28.9,-11.5 h 19.1 c -0.2,-4.9 -3.9,-8.5 -9.2,-8.5 -5.5,0.1 -9.2,3.7 -9.9,8.5 z"
   id="path208" />
	<path
   class="st0"
   d="m 750.8,246.2 v 9.2 H 712.6 V 199.5 H 750 v 9.2 h -27.1 v 13.9 h 23.4 v 8.9 h -23.4 v 14.7 z"
   id="path210" />
	<path
   class="st0"
   d="m 799,235.5 c 0,13 -8.3,20.7 -18.8,20.7 -5.4,0 -9.4,-2.2 -11.6,-4.6 v 19.7 h -10.2 v -55.9 h 8.3 l 0.9,4.7 h 0.7 c 1.9,-2.6 5.7,-5.5 11.9,-5.5 10.8,0 18.8,8.2 18.8,20.9 z m -10.2,0 c 0,-7.2 -4.1,-12 -10.1,-12 -6.1,0 -10,4.8 -10,12 0,7 3.9,11.8 10,11.8 6,0 10.1,-4.8 10.1,-11.8 z"
   id="path212" />
	<path
   class="st0"
   d="m 805.3,204.2 c 0,-3.5 3,-6.2 6.3,-6.2 3.4,0 6.1,2.7 6.1,6.2 0,3.3 -2.8,6.1 -6.1,6.1 -3.4,0 -6.3,-2.9 -6.3,-6.1 z m 1.2,11.2 h 10.2 v 39.9 h -10.2 z"
   id="path214" />
	<path
   class="st0"
   d="m 864.6,198.7 v 56.7 h -8.3 l -0.9,-4.7 h -0.7 c -1.9,2.6 -5.7,5.5 -11.9,5.5 -10.7,0 -18.8,-8.1 -18.8,-20.8 0,-13 8.3,-20.7 18.8,-20.7 5.4,0 9.4,2.2 11.6,4.6 v -20.5 h 10.2 z m -10.3,36.6 c 0,-7 -3.9,-11.8 -10,-11.8 -6.1,0 -10.1,4.8 -10.1,11.8 0,7.2 4.1,12 10.1,12 6.1,0 10,-4.8 10,-12 z"
   id="path216" />
	<path
   class="st0"
   d="m 910.9,242.7 c -1.6,8.2 -8.5,13.4 -18.6,13.4 -11.9,0 -20.5,-8.1 -20.5,-20.4 0,-13.2 9.1,-21.2 20.1,-21.2 9.8,0 18.9,6.2 18.9,20.5 0,1 -0.1,1.8 -0.2,3 H 882 c 0.4,5.7 4.2,9.9 10.4,9.9 4.5,0 7.7,-1.8 8.8,-5.3 h 9.7 z M 882,231.2 h 19.1 c -0.2,-4.9 -3.9,-8.5 -9.2,-8.5 -5.5,0.1 -9.1,3.7 -9.9,8.5 z"
   id="path218" />
	<path
   class="st0"
   d="m 918.6,215.4 h 9.3 l 0.9,4.7 h 0.6 c 2.2,-3 5.5,-5.5 10.9,-5.5 6.3,0 9.1,3.4 10.5,6.3 h 0.6 c 2.2,-3.1 5.7,-6.3 12.5,-6.3 8.2,0 13.5,4.9 13.5,14.6 v 26.1 h -10.2 v -24.2 c 0,-5.1 -3,-7.7 -6.9,-7.7 -4.3,0 -7.3,3.2 -7.3,8.2 v 23.6 h -10.2 v -23.9 c 0,-5.3 -3,-8 -6.8,-8 -3.7,0 -7.3,2.6 -7.3,8.1 v 23.7 h -10.2 v -39.7 z"
   id="path220" />
	<path
   class="st0"
   d="m 985.2,204.2 c 0,-3.5 3,-6.2 6.3,-6.2 3.4,0 6.1,2.7 6.1,6.2 0,3.3 -2.8,6.1 -6.1,6.1 -3.4,0 -6.3,-2.9 -6.3,-6.1 z m 1.2,11.2 h 10.2 v 39.9 h -10.2 z"
   id="path222" />
	<path
   class="st0"
   d="m 1003.9,235.3 c 0,-12.3 9.1,-20.7 21.1,-20.7 12,0 21.1,8.5 21.1,20.7 0,12.4 -9,20.8 -21.1,20.8 -12,0 -21.1,-8.5 -21.1,-20.8 z m 32,0 c 0,-6.6 -4.4,-11.8 -10.9,-11.8 -6.5,0 -10.9,5.2 -10.9,11.8 0,6.7 4.3,12 10.9,12 6.6,0 10.9,-5.3 10.9,-12 z"
   id="path224" />
	<path
   class="st0"
   d="m 1053.4,198.7 h 10.2 v 56.7 h -10.2 z"
   id="path226" />
	<path
   class="st0"
   d="m 1070.9,235.3 c 0,-12.3 9.1,-20.7 21.1,-20.7 12,0 21.1,8.5 21.1,20.7 0,12.4 -9,20.8 -21.1,20.8 -11.9,0 -21.1,-8.5 -21.1,-20.8 z m 32,0 c 0,-6.6 -4.4,-11.8 -10.9,-11.8 -6.5,0 -10.9,5.2 -10.9,11.8 0,6.7 4.3,12 10.9,12 6.6,0 10.9,-5.3 10.9,-12 z"
   id="path228" />
	<path
   class="st0"
   d="m 1151.4,220.9 c 1.7,2.2 2.6,4.7 2.6,7.5 0,8.5 -7.3,13.4 -16.8,13.4 -2.5,0 -4.7,-0.3 -6.7,-0.9 -1.3,0.6 -1.9,1.5 -1.9,2.6 0,2.3 2.6,3 5.3,3 h 7.8 c 9.6,0 14.5,4.6 14.5,11.8 0,8.5 -7.2,13.7 -18.8,13.7 -12.7,0 -18.6,-6.3 -19.4,-13.4 l 6.1,-5.3 c -2.8,-1.5 -4.6,-4.2 -4.6,-7.3 0,-3.8 2.5,-6.2 5.3,-7.8 -3,-2.3 -4.7,-5.6 -4.7,-9.7 0,-7.8 6.3,-13.8 16.5,-13.8 3.5,0 6.7,0.7 9.3,2 2.6,-1.3 5.3,-3.5 6.9,-5.7 l 5,5.6 c -1.2,1.3 -3.7,3.1 -6.4,4.3 z m -11,33.7 h -7.3 l -5.3,4.5 c 0.9,2.8 3.8,5.3 9.7,5.3 4.9,0 8.9,-1.8 8.9,-5.4 0,-3.3 -3.1,-4.4 -6,-4.4 z m 3.8,-26.3 c 0,-3.7 -2.6,-6.3 -7,-6.3 -4.5,0 -7.3,2.6 -7.3,6.3 0,3.5 2.8,6.1 7.3,6.1 4.4,0 7,-2.6 7,-6.1 z"
   id="path230" />
	<path
   class="st0"
   d="m 1165.6,271.2 v -7.6 c 1.5,0.3 3,0.5 4.2,0.5 3.8,0 7.2,-1.4 8.8,-5.3 l 1.4,-3.4 h -3.2 l -15.2,-39.9 h 10.5 L 1183,245 h 0.6 l 10.1,-29.5 h 10.5 l -16.1,44.9 c -1.2,3.5 -4.3,11.8 -16,11.8 -2.7,-0.1 -4.7,-0.5 -6.5,-1 z"
   id="path232" />
	<path
   class="st0"
   d="m 758.5,316.5 c 0,15.2 -9.8,22.4 -22.8,22.4 -13.1,0 -23.1,-7.3 -23.1,-22.4 v -34.2 h 10.5 v 33.9 c 0,8.5 5.3,13 12.5,13 7.2,0 12.3,-4.6 12.3,-13 v -33.9 h 10.5 v 34.2 z"
   id="path234" />
	<path
   class="st0"
   d="m 768.6,298.2 h 9.3 l 0.9,4.7 h 0.6 c 2.4,-3.1 5.7,-5.5 11.7,-5.5 9.5,0 15.6,6.1 15.6,16.5 v 24.2 H 796.5 V 316 c 0,-6.5 -3.8,-9.7 -8.5,-9.7 -4.9,0 -9.2,3.1 -9.2,10.2 v 21.6 h -10.2 z"
   id="path236" />
	<path
   class="st0"
   d="m 814.5,287 c 0,-3.5 3,-6.2 6.3,-6.2 3.4,0 6.1,2.7 6.1,6.2 0,3.3 -2.8,6.1 -6.1,6.1 -3.3,0 -6.3,-2.8 -6.3,-6.1 z m 1.2,11.2 h 10.2 v 39.9 h -10.2 z"
   id="path238" />
	<path
   class="st0"
   d="m 839.8,327.3 v -21 h -8.5 v -8.1 h 2.7 c 4.9,0 6.8,-1.8 6.8,-6.1 v -4.8 h 9.3 v 10.9 h 10.5 v 8.1 H 850 v 19.6 c 0,2.2 0.6,4.9 5.3,4.9 1.2,0 2.7,-0.2 3.9,-0.6 v 7.7 c -1.8,0.4 -4.2,0.9 -7,0.9 -11.1,0.2 -12.4,-7.1 -12.4,-11.5 z"
   id="path240" />
</g>
<g
   id="g288"
   transform="translate(-84.900002,-50.2)">
	<path
   d="m 1802.7,263.1 c 4.2,-0.2 11.1,-0.5 14.8,-0.5 20.7,0 27.8,10.8 27.8,22.6 0,13.1 -8.1,19.5 -24.2,19.5 h -18.4 z m -14,85.5 c 0,10.6 -2.7,13.8 -16.5,13.8 h -3.9 v 3.2 h 61.6 c 27.1,0 36.4,-18.7 36.4,-32 0,-13.1 -9.3,-23.4 -25.1,-28.1 v -0.3 c 11.3,-2 19.2,-10.9 19.2,-20.5 0,-8.1 -3.4,-13.8 -10.3,-18.7 -6.1,-4.4 -19,-6.6 -33.8,-6.6 -3.2,0 -16,0.2 -25.3,0.5 -4.9,0.2 -16.5,0.8 -21.2,1 v 3.2 h 5.9 c 11.8,0 13,5.1 13,14.6 z m 14,-40.7 h 18.2 c 19.7,0 29.6,13.3 29.6,26.3 0,13.1 -6.4,26.9 -28.6,26.9 -14.1,0 -19.2,-4.5 -19.2,-17.3 z"
   id="path244" />
	<path
   d="m 2036.9,264.1 v -3.2 H 1996 v 3.2 c 9.4,0.5 12.6,3 12.6,12.1 V 348 c 0,10.9 -2.1,13.8 -11.7,14.4 -12.8,-0.7 -18.3,-5.7 -27.5,-14.9 l -13.3,-13.3 c -7.9,-7.9 -13,-12.6 -19.2,-17.5 13.8,-4 22.4,-14.7 22.4,-27.3 0,-17.2 -14,-30 -45.1,-30 -11,0 -14.3,0.2 -21.2,0.5 -6.9,0.3 -17.2,1 -21.2,1 v 3.2 h 3.7 c 9.8,0 12.6,3 12.6,13.5 v 70.9 c 0,11.3 -3.5,14 -13.5,14 h -2.9 v 3.2 h 47.7 v -3.2 h -3.9 c -9.4,0 -13.5,-2.5 -13.5,-12.6 v -28.5 c 2.7,0.2 4.9,0.3 8.6,0.3 4.6,0 7.2,-0.2 11.5,-0.3 4,2.7 9.9,7.6 17.4,15 l 11.1,11.1 c 14.6,14.6 20.8,19.2 48.2,18.2 h 38.2 v -3.2 c -11.6,0 -14.3,-3.4 -14.3,-13.3 v -71.4 c -0.1,-11.3 3.6,-13.7 14.2,-13.7 z m -124.4,54.4 c -3.9,0 -6.4,0.2 -10.4,-0.3 V 263 c 3,-0.3 5.2,-0.3 8.4,-0.3 25.9,0 33,12.1 33,27.8 -0.1,20.1 -12.3,28 -31,28 z"
   id="path246" />
	<path
   d="m 2048.3,340.1 c 3.5,15 15.3,23.7 28.5,23.7 11.3,0 23.2,-6.6 23.2,-19.9 0,-24.3 -54.1,-31.7 -54.1,-61.1 0,-14 12.8,-24.4 30,-24.4 14.1,0 17,4.2 22.9,4.2 1.3,0 2,-0.3 3,-1.7 h 2.7 l 2.9,21.4 h -2.9 c -4.7,-12.1 -15.5,-19.9 -27.1,-19.9 -11.1,0 -18.9,6.4 -18.9,15.8 0,23.9 54.1,30.3 54.1,61.3 0,16.5 -14.7,28.8 -34.4,28.8 -9.3,0 -21,-4.5 -23.4,-4.5 -1.5,0 -2.7,0.8 -3.4,1.9 h -2.9 l -3.5,-25.6 z"
   id="path248" />
	<path
   d="m 2177.5,350.2 c 0,9.1 3,12.3 13.3,12.3 h 6.2 v 3.2 h -53 v -3.2 h 6.2 c 10.3,0 13.3,-3.2 13.3,-12.3 V 267 h -29.3 c -6.7,0 -9.8,3.9 -12.3,18.7 h -3 l 2.7,-27.3 h 3.2 c 0.2,1 0.8,1.7 1.9,2 1,0.3 2.2,0.5 3.4,0.5 h 81 c 2.4,0 4.9,-0.5 5.2,-2.5 h 3.2 l 2.7,27.3 h -3 c -2.5,-14.8 -5.6,-18.7 -12.3,-18.7 h -29.3 v 83.2 z"
   id="path250" />
	<path
   d="m 2329.6,316 c 0,23.9 -13.1,48.2 -40.6,48.2 -27.1,0 -48.5,-22.2 -48.5,-53.7 0,-20.2 11.8,-47.8 41.4,-47.8 27.8,-0.1 47.7,22 47.7,53.3 z m 15.8,-5.6 c 0,-30.3 -27.3,-52 -59.1,-52 -35.9,0 -61.6,23.7 -61.6,57.3 0,31.5 27.8,52.7 60.8,52.7 32.6,0 59.9,-24 59.9,-58 z"
   id="path252" />
	<path
   d="m 2423.7,365.7 h -75.3 v -3.2 h 5.6 c 7.7,0 10.6,-2.5 10.6,-11.1 v -74.6 c 0,-8.9 -2.7,-12.6 -13.3,-12.6 h -2.4 V 261 h 49.7 v 3.2 h -6.2 c -10.9,0 -13.8,1.2 -13.8,11.6 v 77.6 c 0,4.5 1.9,6.2 6.7,6.2 h 24.8 c 9.9,0 13,-3.9 23.6,-18.5 h 3 z"
   id="path254" />
	<path
   class="st4"
   d="m 1637,212.8 c -0.1,-9.8 -3.5,-29.8 -26.9,-41.2 23.8,7.6 35.3,27.7 36.4,42.7 25,5 47.2,16.7 83.2,4.3 l 0.1,-0.1 c 0,0 -47.4,0.4 -67.2,-13.9 10.2,0.4 22,-1.9 25.9,-7.7 4.1,-6.2 4.5,-12.6 14.7,-12.9 5.7,-0.2 25,1.3 27,-27.1 -6.2,10.4 -12.9,14.7 -23,12.2 -6.5,-1.6 -18.2,-6.6 -26.7,3.5 -7,8.3 -14.4,12.6 -26.3,11.3 4.8,-6.4 75.8,-98.6 75.8,-98.6 0,0 -91,73 -96,77.3 -1,-13.3 3,-18.2 8.4,-24.1 4.4,-4.8 12,-11.3 5.9,-25 -4.9,-11.1 -4.2,-17.8 9.1,-28.4 -10.6,0.8 -26.8,7.9 -24.9,27.4 1.2,11.8 -7.2,12.8 -10.2,14.5 -7.9,4.4 -9,17.1 -9.2,27 -0.9,-3.2 -12.4,-52.8 -16.5,-68.8 0,0 0,133.3 0,133.3 h 0.3 c 15.4,-6.1 28.3,-7 40.1,-5.7 z"
   id="path256" />
	<path
   d="m 1863.3,140.8 v 2.4 c -8.4,0.1 -11.4,3.5 -11.4,11.5 v 33.7 c 0,15.5 -9.9,32.1 -37,32.1 -23.8,0 -36.1,-13.6 -36.1,-31.5 v -36.5 c 0,-8 -2.2,-9.2 -10.7,-9.4 v -2.4 h 32.1 v 2.4 h -1.1 c -6.9,0 -9.9,1.9 -9.9,9.1 V 187 c 0,16.9 9.9,27 28.5,27 14.1,0 28.5,-5.9 28.5,-27.1 v -29.1 c 0,-12 -1.9,-14.1 -12.2,-14.6 v -2.4 z"
   id="path258" />
	<path
   d="m 1879.7,207.6 c 0,6.9 1.6,8.5 8.4,8.5 v 2.4 H 1863 v -2.4 c 5.5,0 8.4,-3 8.4,-7.9 V 182 c 0,-4.6 -0.5,-5.5 -3.7,-6.1 l -4.2,-0.9 v -2 l 14.4,-5.2 h 2 v 9.7 c 8.4,-5.2 15.4,-9.9 21.5,-9.9 8.5,0 13.4,6.2 13.4,18.7 0,16.6 -0.9,19.9 -1,24.7 -0.1,3.4 1.9,5 7,5 h 2.7 v 2.4 h -26.8 V 216 c 3.6,-0.1 5.7,-1 7.1,-2.4 2.4,-2.4 2.6,-11.5 2.6,-28.1 0,-10 -4.9,-13.1 -9.9,-13.1 -4,0 -10.1,3.5 -16.6,8 v 27.2 z"
   id="path260" />
	<path
   d="m 1947.2,209 c 0,4.4 2.4,7.1 9,7.1 v 2.4 h -27.7 v -2.4 c 7.6,0 10.4,-2.5 10.4,-9.1 v -25.1 c 0,-4.9 -0.6,-5.5 -3.9,-6.1 l -5.9,-1.1 v -2 l 16.2,-5.6 h 1.9 z m -5.1,-70.1 c 3,0 5.5,2.1 5.5,4.7 0,2.6 -2.5,4.7 -5.5,4.7 -3,0 -5.4,-2.1 -5.4,-4.7 0,-2.5 2.4,-4.7 5.4,-4.7 z"
   id="path262" />
	<path
   d="m 1984.7,219.6 -18.1,-41.5 c -1.9,-4.4 -3.5,-5.9 -5.5,-6.2 l -3.9,-0.6 V 169 h 25.5 v 2.2 c -7.6,0.2 -10,1.2 -7,7.1 l 13.2,31.1 12.7,-28.8 c 2.2,-5.1 1.1,-8.7 -8,-9.4 V 169 h 21.7 v 2.2 c -4.7,0.9 -7.5,3.6 -9.9,9.1 l -17.2,39.2 h -3.5 z"
   id="path264" />
	<path
   d="m 2025.9,183.5 c 2.9,-11.6 9.1,-13.5 13.2,-13.5 6,0 11,5.4 12.4,13.5 z m 36.1,3.3 v -2.9 c -4.1,-4.1 -3.7,-16.2 -20.6,-16.2 -15.2,0 -24.1,13.5 -24.1,26.7 0,14.5 9.5,25.6 21.7,25.6 9.1,0 17,-6.2 22.2,-12.9 l -1.4,-1.5 c -4.7,5.6 -9.6,8.1 -15.9,8.1 -9.9,0 -19,-8.7 -19,-21.7 0,-1.6 0.3,-3.4 0.5,-5.2 z"
   id="path266" />
	<path
   d="m 2086.1,209.4 c 0,5.1 1.9,6.7 8.1,6.7 h 4.7 v 2.4 h -29.6 v -2.4 c 6.4,-0.1 8.4,-2.7 8.4,-9.4 v -28.8 l -8.4,-3 v -2.1 l 14.2,-5 h 2.5 V 181 h 0.2 c 6.2,-10.2 7.7,-12.6 11.9,-12.6 1.5,0 1.9,0.1 4.2,1.1 1.2,0.5 3.5,1 6.5,1.9 l -3,7.5 c -1.9,-0.2 -4.2,-0.9 -6.6,-2 -1.4,-0.6 -2.9,-1.2 -4.4,-1.2 -2.3,0 -3.6,1.5 -4.9,3.2 -1.6,2.2 -3,4.4 -4,6.2 v 24.3 z"
   id="path268" />
	<path
   d="m 2117.5,205.9 c 1.5,7.5 6.2,11.7 11.9,11.7 5,0 8.9,-3.7 8.9,-8.2 0,-2.6 -0.6,-4.2 -4,-7.6 -8.9,-8.9 -18.7,-9.7 -18.7,-20.1 0,-8.2 6.5,-14 16,-14 3.4,0 6.9,0.8 10,2 l 0.2,11.4 h -2.1 c -0.9,-6.4 -5,-10.4 -10,-10.4 -4.1,0 -7.6,2.9 -7.6,7 0,11 23.2,12.9 23.2,28.1 0,8.1 -6.7,14.2 -15.5,14.2 -2.4,0 -4.1,-0.4 -5.5,-0.9 -1.4,-0.4 -2.4,-0.7 -3.4,-0.7 -0.7,0 -1.5,0.5 -2.1,1.5 h -1.9 l -1.4,-14 z"
   id="path270" />
	<path
   d="m 2171.6,209 c 0,4.4 2.4,7.1 9,7.1 v 2.4 h -27.7 v -2.4 c 7.6,0 10.4,-2.5 10.4,-9.1 v -25.1 c 0,-4.9 -0.6,-5.5 -3.9,-6.1 l -5.9,-1.1 v -2 l 16.2,-5.6 h 1.9 z m -5.1,-70.1 c 3,0 5.5,2.1 5.5,4.7 0,2.6 -2.5,4.7 -5.5,4.7 -3,0 -5.4,-2.1 -5.4,-4.7 0,-2.5 2.4,-4.7 5.4,-4.7 z"
   id="path272" />
	<path
   d="m 2216.2,169 -2,5.5 h -15.9 v 29.1 c 0,7.9 5.6,10.5 8.2,10.5 2.7,0 5.2,-2.1 7.6,-6.2 l 2,1.9 c -3,6.5 -7.9,10.2 -13.6,10.2 -7.4,0 -12.6,-6.1 -12.6,-14.5 v -31 h -5.7 v -2 c 4.9,-2.4 9.1,-8.1 12,-15.9 h 2.1 V 169 Z"
   id="path274" />
	<path
   d="m 2265.6,182.9 c 3.7,-9.5 1.4,-11.4 -6,-11.6 V 169 h 20.7 v 2.2 c -5.1,0.6 -8,4.1 -10.4,10 l -21.2,52.9 c -3.8,9.2 -6.6,13.4 -11,13.4 -3,0 -5.1,-1.9 -5.1,-4.4 0,-5.1 7.2,-3.9 10.4,-7 1.4,-1.4 3.2,-4.6 4.2,-7.1 l 3.7,-9.4 -19.4,-41.1 c -2.4,-5.1 -4.6,-7.2 -9.9,-7.4 V 169 h 25.1 v 2.2 c -7.6,0.1 -8.5,2.4 -6,7.6 l 14.1,30.5 z"
   id="path276" />
	<path
   d="m 2317.7,189.9 c 0,-10.7 7.6,-19.2 15.9,-19.2 10.5,0 19.2,12.1 19.2,26.3 0,12.5 -8.4,20 -15.7,20 -10.8,0 -19.4,-12 -19.4,-27.1 z m -9.3,4.2 c 0,14.6 11.9,25.8 27.3,25.8 14.9,0 26.5,-11.4 26.5,-26.1 0,-14.9 -11.6,-26.2 -26.8,-26.2 -13.1,0.1 -27,9.3 -27,26.5 z"
   id="path278" />
	<path
   d="m 2398.4,174.5 h -13.5 v 34.2 c 0,5.7 2.2,7.4 9.2,7.4 h 4.7 v 2.4 H 2368 v -2.4 c 7.2,0 8.5,-1.6 8.5,-8.6 v -33 h -9.2 v -2.1 c 3.5,-0.7 6.5,-1.9 9.2,-3.4 0,-10.4 2.2,-18.2 9.6,-25.6 6.1,-6.1 12,-8.9 17.7,-8.9 7,0 12.9,4 12.9,5.9 0,1 -2.4,6 -3.4,6 -1.8,0 -6.4,-6.1 -14.6,-6.1 -9,0 -13.9,7.1 -13.9,19.2 v 9.5 h 12.6 z"
   id="path280" />
	<path
   class="st4"
   d="m 1582.7,85.2 c 0,0 0,131.2 0,133.3 -53.6,-21.1 -76,19.8 -133.1,0 0,0.6 0,-133.3 0,-133.3 h 27.2 v 14.4 h 15.6 V 85.2 h 15.3 v 14.4 h 15.5 V 85.2 h 15.5 v 14.4 h 16.8 V 85.2 Z m -98.6,38.8 c 6.1,0.3 13.6,-3.5 14,-3.8 0,0 -2.6,6.5 3.2,6.1 6.3,-0.4 13.5,-3.6 14.6,-4.1 v -8.4 c -0.6,0.4 -6.7,4.7 -13.6,6.3 -2.5,0.6 -1.7,-1.7 -1.4,-3 0.3,-1.3 0.4,-2.3 -4.1,-0.5 -18.6,7.7 -19.6,2.4 -19.6,1.8 -0.8,1 -0.5,5.2 6.9,5.6 z m 54.3,0.3 c 0,0 -24.2,3.5 -31.2,4.1 -4.8,2.8 -10.3,10.8 -10.3,10.8 0,0 -5.7,0.8 -17,2.9 -7.9,5.1 -12.6,17.1 -2.8,26.9 -3.1,-0.6 -3.1,-0.6 -7.6,-1.4 -9.7,6.2 -5.2,17.6 14.9,13.7 -5.7,-0.2 -8.5,-3 -8.4,-6.6 -0.1,-3.9 7.5,-8.8 16.9,-6.3 -8.9,-16.8 1,-23.4 1,-23.4 0,0 -5.2,13.9 6.2,25.2 1,-1.7 4.4,-6.4 14,-6.6 9.6,-0.2 15.6,4.5 15.7,9.9 0.1,4.8 -5.9,9.8 -13.8,9.8 l -0.1,-11.4 c 0,0 -2.6,0.9 -3.3,1.9 0,0.5 -0.1,9.6 -0.1,9.6 -3.1,0 -9.4,-1.3 -12.7,-6.6 -2.6,-0.3 -16.9,-2.4 -16.9,-2.4 l 0.8,3.8 c 0,0 5,0.8 6,5.9 1.2,6.1 4.6,11.7 7.7,13.9 6,-0.7 15.9,-8.2 34.1,-8 -16.7,2.3 -33.7,20.2 -58.2,13.4 38.9,13.3 42.9,-16.2 91.6,-7 -7.6,-4.6 -18.9,-6.1 -18.9,-6.1 0,0 6.1,-6.6 6.3,-16.6 0.8,0 1.8,-0.1 3.7,-0.3 0.6,-3.2 1.1,-6.5 1.1,-6.5 0,0 -10.6,0 -19.5,0 -21.8,-21.9 0.8,-42.6 0.8,-42.6 z m 9.3,33 c -1,-5.5 -0.5,-16.5 4.9,-27.3 -20,15.1 -20.2,27.3 -20.2,27.3 0,0 3.9,-3 15.3,0 z"
   id="path282" />
	<path
   class="st4"
   d="m 1729.7,232.2 c 0,-2.1 0,133.5 0,133.5 -73.8,18 -75.9,-21.2 -133.1,0 0,1.7 0,-133.5 0,-133.5 52.5,-22 73,19.7 133.1,0 z m -29.7,15.1 c -11.9,4.2 -10.1,17 -6.9,21.9 4.2,6.4 7.7,6.6 10.4,14.1 2.1,5.9 -1.6,9 -5.3,10.3 6.3,3.9 12.7,-0.1 15.1,-4 4.3,-5.7 -0.6,-13.1 4,-16.9 1.2,-1 3.3,-1.7 6.1,-1.9 -2.8,-3.9 -9.3,-3.5 -11.9,0.2 -1.8,-4.3 -7,-8 -5.1,-14.6 1.2,-4.3 8,-5.9 10.6,-2.4 1.4,1.9 1.6,5.7 -2.5,7.7 2.6,-0.2 7.5,-4.6 4.1,-10.7 -2.4,-4.3 -6.3,-4.6 -9.5,-4.6 -5.9,0 -15.6,6.7 -9.4,21.2 -3.6,-3.1 -9.4,-14.2 0.3,-20.3 z m -75.1,25.9 c 0,0 -1.9,2.3 0.2,2.9 0,0.7 0.3,2 0.6,2.7 0.4,0.9 1,0.6 1.6,-0.1 0.7,-0.8 1.8,-2.2 2.6,-3.1 0.7,-0.8 3.2,-0.5 2.2,1.1 -0.7,1 -1.2,1.3 -2.1,1.5 -0.7,0.2 -0.9,-0.4 -1.6,0.6 -0.8,1.1 -1.6,1.8 -0.2,1.8 0.7,0 2.1,0.7 3,0.5 0.9,-0.1 1,-0.7 1.1,-1.5 0.1,-0.8 -0.1,-1.3 0.8,-1.8 1.2,-0.6 2.9,-2.2 3.4,-2.7 0.6,-0.6 1.4,-0.5 2.1,-0.5 0.7,0 4.5,0.5 6.7,-2.9 1.6,-2.3 1.7,-5.6 1.2,-8.4 1.1,1.1 2.5,4.4 1.7,7.5 -1.3,5.6 -4.1,5.9 -6.9,6.5 -1.2,1.6 -4.1,5.9 -5.7,13.5 -0.7,0.4 -6.3,5.9 -1.6,14.7 -1.2,0.4 -4.8,1.9 -6.9,2.4 -1.4,0.3 -2.6,0.4 -3.2,1.1 -0.6,0.8 -2.1,3.3 -1.4,4.5 0.5,0.9 4.1,8.7 4.3,11.2 0.3,2.4 1.2,3 2,3.8 1,0.9 1.6,0.8 2.9,1.8 1.4,1 2.5,2.9 3.8,3.9 1.4,1.1 2.9,1.5 3.9,1.4 -0.3,-3.9 -1.1,-7.8 -2.3,-9.1 -1.3,-1.3 -2.9,0.6 -3.3,0.7 -0.4,0.1 -0.9,-0.3 -1.2,-1.4 -0.2,-1.1 0.8,-2 -0.2,-3.5 -1.8,-2.7 -3.5,-5.7 -3.7,-6.1 -1.3,-2.5 0.9,-3.1 1.4,-3 1.3,0.3 8.8,1.3 9.9,1.4 1.2,0.1 1.8,0.3 2.3,-0.3 1.6,-1.8 2.5,-3.1 3.4,-4.9 1.7,1.3 0.5,3.7 0,6.5 0.5,0.4 11.4,5.9 26.4,1.9 6.3,-1.7 5.6,-0.4 6.1,0.8 3.6,7.1 6.2,9.8 10.5,13.2 1.3,1 2.2,2.7 2.8,3.7 0.6,1 0.7,2.7 0.3,3.8 -0.6,1.4 -3.9,7.4 -4.5,8.2 -1.1,1.6 -2.5,3 -3.7,3.6 -3.8,2 -4.7,3.8 -5.2,5.3 0.9,0 9.8,0 9.8,0 0,0 0.2,-0.5 0.1,-1.7 -0.2,-1.7 1.4,-2 1.9,-2.1 0.5,-0.1 1.4,0.3 2.1,-1.5 1.5,-3.5 7.1,-13.1 7.6,-13.9 0.5,-0.9 2.3,-3.2 0.5,-4.2 -3.3,-1.9 -5.2,-5.1 -5.9,-8.7 -0.3,-1.4 -0.1,-3.7 3.1,-7.7 6.8,-8.5 1.7,-26 -13.5,-25.7 -8.6,0.2 -13.4,-0.6 -19,-1.7 -2.1,-0.4 -2.4,-1.5 -2,-2.8 0.5,-1.3 0.9,-3.8 0.9,-4.9 -1.5,-1.4 -3.7,-2.2 -4.8,-2.6 -1.2,-0.4 -1.8,-1.4 -0.6,-1.4 1.2,-0.1 5.7,0.4 5.7,0.4 0,0 0.2,-2.4 -0.5,-6 -1.9,-0.8 -4.4,-1.5 -7,-1.9 -0.7,-0.1 -1.3,-0.8 0.5,-1.1 2.3,-0.3 4.3,0 5.9,-0.1 0.1,-0.2 -0.8,-4.7 -2.4,-6.5 -1.1,-0.3 -1.7,-0.5 -5.6,-0.9 -1.4,-0.2 -1.4,-0.5 -0.5,-0.8 1,-0.3 2.8,-0.7 5,-0.5 -0.8,-1.2 -6.4,-11.4 -18.1,-8.3 1.3,1.6 1.9,2.3 2.3,3.4 0.3,1 -0.7,1.3 -1.6,0.3 -3.7,-3.9 -5.6,-3.8 -8,-4.2 1.5,1.5 2.2,3 2.8,4.5 -2.7,1.9 -6.4,6.4 -7,7.2 -1,1.7 0.4,2.5 0.4,2.5 z m 5.5,25.4 c -5.4,-2.2 -6.6,-3.7 -7.6,-4.1 -0.9,-0.4 -4.6,1.2 -5.2,2.8 -1.7,4.3 -5.4,11.4 -6,12.4 -0.3,0.5 -0.6,1.2 -0.5,1.9 0.1,0.7 0.3,3.5 0.2,4.1 -0.1,0.6 0,1.5 0.3,2.1 0.3,0.6 0.6,3.4 2,6.2 3.2,-3.2 3.6,-7.8 3.4,-6.9 0,0 1,-1.7 -1.5,-2.5 -0.7,-0.2 -0.6,-2.1 0.2,-2.3 0.9,-0.3 1.4,-0.5 1.9,-2.2 0.5,-1.7 2.1,-7.7 2.7,-8.9 0.1,-0.2 0.2,-0.5 0.6,-0.6 0.5,-0.2 1.1,-0.4 1.5,-0.5 0.2,0 0.7,0.2 0.8,0.4 0.9,0.9 5.3,4.5 5.3,4.5 0,0 2,-0.2 3.2,-0.7 -0.9,-1.3 -1.2,-4.2 -1.3,-5.7 z m 49.4,35.3 c -2.1,1.7 -8.7,5.1 -10.3,5.8 -1.6,0.8 -2.2,1.2 -3.4,3.6 -1.5,2.9 -2.9,8.2 -2.5,8.6 4.1,-0.6 7,-4.1 7,-4.1 0,0 0.1,-0.8 -0.8,-2.3 -0.7,-1.2 0.7,-2.4 1.6,-1.7 0.7,0.6 1.6,0.7 2.2,0.2 0.6,-0.5 13.2,-8.5 13.8,-9.5 -2.6,-2.5 -4.5,-5.1 -4.5,-5.1 0,0 -0.9,2.7 -3.1,4.5 z m -45.9,-67.4 c 0,0 -0.6,-0.3 0.6,-1.3 0.1,-0.1 0.4,0.2 1.1,0.2 0.9,0 1.4,-0.3 2.2,-1.3 1.2,-1.4 -1.3,-2 -2.1,-1.3 -0.9,0.8 -1.5,1.5 -2.3,2.2 0,0 -1.2,1.2 0.5,1.5 z"
   id="path284" />
	<path
   class="st4"
   d="m 1582.7,232.2 c 0,0 0,135.2 0,133.5 -57.2,-21.2 -59.3,18 -133.1,0 0,0 0,-135.6 0,-133.5 60.1,19.7 80.6,-22 133.1,0 z m -90.7,87.7 c -0.5,5.7 -3.7,6.5 -3.7,6.5 -5.7,-2.6 -8.7,4.5 -4,6.6 6,2.7 9.7,-5.1 10.1,-6.6 1,-4.1 1.1,-7 0.7,-13.6 -0.4,-5.7 1,-6.5 1.9,-6.7 0.9,-0.2 2.9,-0.2 4.8,5.7 1.9,5.9 6.1,6.7 6.1,6.7 0,0 -6.1,-9.9 2.4,-19 3.9,-4.2 11.9,-6.6 10.4,-12.6 0,0 -1.2,2.1 -3.6,2.7 -2.4,0.6 -7.1,1.3 -7.1,1.3 0,0 11.2,-5.3 13.2,-11.3 0,0 3.5,5.8 -1.2,14.3 0,0 4.4,-1.6 9.2,0.6 12.2,5.4 10.9,22.7 -4.5,26.8 -21.9,5.9 -13.9,22.8 -1.4,23.8 -1.3,-0.9 -1.7,-6 0.6,-9 1.1,-1 3.1,-3 4.3,1.2 2.2,7.3 8.6,7.9 11.6,7 -0.8,-0.7 -2.2,-2.9 -2.1,-4.2 0.4,-2.6 3.6,0.1 4.7,0.4 8.6,2.4 13.2,0.3 13.7,-1 -1.9,-0.4 -1.6,-0.2 -2.8,-0.5 -1.1,-0.3 -3.4,-1.9 0.8,-2.8 7.6,-1.7 11.8,-9.6 6.8,-15.6 -4.8,-5.8 -10.8,-4.9 -12.8,-4.1 8.3,1.8 8.7,8.4 4.5,11.8 -3.7,2.8 -12.8,3.8 -15.9,-2.3 -2,1.4 -2.7,3.7 -2.3,6.5 -0.8,-0.3 -4.3,-5.2 0.9,-9.3 23.8,-15.4 20,-41.1 -0.2,-51.8 l -0.3,-0.1 c -18.3,-10.5 -34.3,-0.9 -34.3,-0.9 11.3,-11.3 30.8,-4.6 33.6,-3.2 0,0 -2.2,-2 -3.4,-3.7 -1.5,-2.3 -1.5,-4.5 -1.5,-4.5 -7.8,4.3 -9.8,-2.3 -9.8,-2.3 0,0 -6.7,6.1 -11.1,1.1 -3.8,-4.3 2.4,-10.2 2.4,-10.2 -39.3,12.9 -31.9,35.1 -31.9,35.1 0,0 -5.7,5.2 -7,17.8 -1.4,14.3 5.7,24.5 14.6,21.7 2,-0.6 3.1,-1.6 3.4,-2.7 z m -1.9,-8.5 c 1.9,-0.1 2.2,-2.5 1.8,-3.7 -0.4,-1.5 -2.9,-1.7 -3.5,0.2 -0.6,1.9 -0.1,3.7 -0.1,3.7 0.5,1.8 2.5,2.3 2.7,2.1 -1,-1.1 -0.7,-1.6 -0.9,-2.3 z m 8,-3 c 0,0 -2.3,1.5 0.6,7.9 2.9,6.4 6.6,12.4 0.2,19.4 3.6,0 11.4,-4.7 3,-18.8 -1.9,-3.2 -4,-5.4 -3.8,-8.5 z"
   id="path286" />
</g>
</svg>
